<svg xmlns="http://www.w3.org/2000/svg" viewBox="0 0 256 256" role="img" aria-label="PJ Cloud Ops">
  <defs>
    <linearGradient id="bg" x1="0" y1="0" x2="1" y2="1">
      <stop offset="0%" stop-color="#0d1929" />
      <stop offset="100%" stop-color="#050b14" />
    </linearGradient>
  </defs>
  <rect width="256" height="256" rx="56" fill="url(#bg)" />
  <rect x="30" y="30" width="196" height="196" rx="40" stroke="#2f8cff" stroke-opacity="0.5" fill="none" />
  <path d="M64 85h44c23 0 35 14 35 33 0 20-12 34-35 34H89v35H64V85Zm25 20v27h18c8 0 12-5 12-13 0-9-4-14-12-14H89Z" fill="#f3f7fb"/>
  <path d="M154 85h27v68c0 23-13 38-36 38-9 0-17-2-23-6v-22c6 4 12 6 18 6 9 0 14-5 14-16V85Z" fill="#2dd4bf"/>
</svg>
