<?xml version="1.0" encoding="UTF-8"?>
<svg xmlns="http://www.w3.org/2000/svg" width="512" height="512" viewBox="0 0 512 512" role="img" aria-labelledby="title desc">
  <title id="title">Microsoft Azure logo in grayscale</title>
  <desc id="desc">Microsoft Azure symbol rendered with layered neutral gray gradients on a transparent background.</desc>
  <defs>
    <linearGradient id="leftGray" x1="185" y1="57" x2="95" y2="454" gradientUnits="userSpaceOnUse">
      <stop offset="0" stop-color="#555555"/>
      <stop offset="1" stop-color="#919191"/>
    </linearGradient>
    <linearGradient id="rightGray" x1="220" y1="57" x2="445" y2="454" gradientUnits="userSpaceOnUse">
      <stop offset="0" stop-color="#BDBDBD"/>
      <stop offset="1" stop-color="#777777"/>
    </linearGradient>
    <linearGradient id="crossGray" x1="160" y1="312" x2="330" y2="455" gradientUnits="userSpaceOnUse">
      <stop offset="0" stop-color="#909090"/>
      <stop offset="0.7" stop-color="#686868"/>
      <stop offset="1" stop-color="#3F3F3F"/>
    </linearGradient>
  </defs>
  <path fill="url(#leftGray)" d="M192 57H179C173 57 168 62 165 70L44 432C40 444 49 454 60 454H167C173 454 178 450 181 442L204 370L160 329C154 323 158 314 166 314H223L255 220L206 69C204 62 199 57 192 57Z"/>
  <path fill="url(#rightGray)" d="M193 57H332C338 57 343 62 345 69L467 432C471 443 462 454 453 454H314C324 454 331 443 328 430L206 69C204 62 199 57 193 57Z"/>
  <path fill="url(#crossGray)" d="M166 312H284L330 431C333 442 324 455 311 455H299C296 455 293 454 290 451L161 329C154 323 158 312 166 312Z"/>
</svg>
