<?xml version="1.0" encoding="UTF-8" standalone="no"?>
<!DOCTYPE svg PUBLIC "-//W3C//DTD SVG 1.1//EN"
 "http://www.w3.org/Graphics/SVG/1.1/DTD/svg11.dtd">
<!-- Generated by graphviz version 2.42.4 (0)
 -->
<!-- Title: TerraformAzureArchitecture Pages: 1 -->
<svg width="1433pt" height="599pt"
 viewBox="0.00 0.00 1433.40 599.40" xmlns="http://www.w3.org/2000/svg" xmlns:xlink="http://www.w3.org/1999/xlink">
<g id="graph0" class="graph" transform="scale(1 1) rotate(0) translate(25.2 574.2)">
<title>TerraformAzureArchitecture</title>
<polygon fill="white" stroke="transparent" points="-25.2,25.2 -25.2,-574.2 1408.2,-574.2 1408.2,25.2 -25.2,25.2"/>
<text text-anchor="middle" x="691.5" y="-527.4" font-family="Arial" font-size="22.00">Guestbook DEV — Terraform / Azure architecture</text>
<g id="clust1" class="cluster">
<title>cluster_rg</title>
<path fill="white" stroke="#2563eb" stroke-width="2" d="M20,-8C20,-8 1363,-8 1363,-8 1369,-8 1375,-14 1375,-20 1375,-20 1375,-497 1375,-497 1375,-503 1369,-509 1363,-509 1363,-509 20,-509 20,-509 14,-509 8,-503 8,-497 8,-497 8,-20 8,-20 8,-14 14,-8 20,-8"/>
<text text-anchor="middle" x="691.5" y="-493.8" font-family="Arial" font-size="14.00">Resource Group: rg&#45;guestbook&#45;dev</text>
</g>
<g id="clust2" class="cluster">
<title>cluster_vnet</title>
<path fill="white" stroke="#0f766e" stroke-width="1.8" d="M260,-74C260,-74 810,-74 810,-74 816,-74 822,-80 822,-86 822,-86 822,-264 822,-264 822,-270 816,-276 810,-276 810,-276 260,-276 260,-276 254,-276 248,-270 248,-264 248,-264 248,-86 248,-86 248,-80 254,-74 260,-74"/>
<text text-anchor="middle" x="535" y="-261.6" font-family="Arial" font-size="13.00">Virtual Network: vnet&#45;guestbook&#45;dev</text>
</g>
<!-- managed_identity -->
<g id="node1" class="node">
<title>managed_identity</title>
<path fill="#eef2ff" stroke="#475569" d="M440,-439C440,-439 286,-439 286,-439 280,-439 274,-433 274,-427 274,-427 274,-413 274,-413 274,-407 280,-401 286,-401 286,-401 440,-401 440,-401 446,-401 452,-407 452,-413 452,-413 452,-427 452,-427 452,-433 446,-439 440,-439"/>
<text text-anchor="middle" x="363" y="-423.2" font-family="Arial" font-size="11.00" fill="#0f172a">User Assigned Managed Identity</text>
<text text-anchor="middle" x="363" y="-411.2" font-family="Arial" font-size="11.00" fill="#0f172a">mid&#45;guestbook&#45;dev</text>
</g>
<!-- container_registry -->
<g id="node2" class="node">
<title>container_registry</title>
<path fill="#eff6ff" stroke="#475569" d="M811,-478C811,-478 691,-478 691,-478 685,-478 679,-472 679,-466 679,-466 679,-452 679,-452 679,-446 685,-440 691,-440 691,-440 811,-440 811,-440 817,-440 823,-446 823,-452 823,-452 823,-466 823,-466 823,-472 817,-478 811,-478"/>
<text text-anchor="middle" x="751" y="-462.2" font-family="Arial" font-size="11.00" fill="#0f172a">Azure Container Registry</text>
<text text-anchor="middle" x="751" y="-450.2" font-family="Arial" font-size="11.00" fill="#0f172a">acrguestbookdev</text>
</g>
<!-- managed_identity&#45;&gt;container_registry -->
<g id="edge8" class="edge">
<title>managed_identity&#45;&gt;container_registry</title>
<path fill="none" stroke="#7c3aed" d="M452.08,-426.33C548.6,-426.33 689,-426.33 689,-426.33 689,-426.33 689,-433 689,-433"/>
<polygon fill="#7c3aed" stroke="#7c3aed" points="686.55,-433 689,-440 691.45,-433 686.55,-433"/>
<text text-anchor="middle" x="562.5" y="-455.8" font-family="Arial" font-size="9.00" fill="#334155">RBAC: AcrPull</text>
</g>
<!-- key_vault -->
<g id="node3" class="node">
<title>key_vault</title>
<path fill="#fef3c7" stroke="#475569" d="M792.5,-400C792.5,-400 709.5,-400 709.5,-400 703.5,-400 697.5,-394 697.5,-388 697.5,-388 697.5,-374 697.5,-374 697.5,-368 703.5,-362 709.5,-362 709.5,-362 792.5,-362 792.5,-362 798.5,-362 804.5,-368 804.5,-374 804.5,-374 804.5,-388 804.5,-388 804.5,-394 798.5,-400 792.5,-400"/>
<text text-anchor="middle" x="751" y="-384.2" font-family="Arial" font-size="11.00" fill="#0f172a">Azure Key Vault</text>
<text text-anchor="middle" x="751" y="-372.2" font-family="Arial" font-size="11.00" fill="#0f172a">kv&#45;guestbook&#45;dev</text>
</g>
<!-- managed_identity&#45;&gt;key_vault -->
<g id="edge9" class="edge">
<title>managed_identity&#45;&gt;key_vault</title>
<path fill="none" stroke="#7c3aed" d="M452.02,-413.67C566.57,-413.67 751,-413.67 751,-413.67 751,-413.67 751,-407 751,-407"/>
<polygon fill="#7c3aed" stroke="#7c3aed" points="753.45,-407 751,-400 748.55,-407 753.45,-407"/>
<text text-anchor="middle" x="562.5" y="-389.8" font-family="Arial" font-size="9.00" fill="#334155">RBAC: Key Vault Secrets User</text>
</g>
<!-- log_analytics -->
<g id="node4" class="node">
<title>log_analytics</title>
<path fill="#f1f5f9" stroke="#475569" d="M1131,-322C1131,-322 1012,-322 1012,-322 1006,-322 1000,-316 1000,-310 1000,-310 1000,-296 1000,-296 1000,-290 1006,-284 1012,-284 1012,-284 1131,-284 1131,-284 1137,-284 1143,-290 1143,-296 1143,-296 1143,-310 1143,-310 1143,-316 1137,-322 1131,-322"/>
<text text-anchor="middle" x="1071.5" y="-306.2" font-family="Arial" font-size="11.00" fill="#0f172a">Log Analytics Workspace</text>
<text text-anchor="middle" x="1071.5" y="-294.2" font-family="Arial" font-size="11.00" fill="#0f172a">law&#45;guestbook&#45;dev</text>
</g>
<!-- sql_server -->
<g id="node5" class="node">
<title>sql_server</title>
<path fill="#e0f2fe" stroke="#475569" d="M1129.5,-176C1129.5,-176 1013.5,-176 1013.5,-176 1007.5,-176 1001.5,-170 1001.5,-164 1001.5,-164 1001.5,-150 1001.5,-150 1001.5,-144 1007.5,-138 1013.5,-138 1013.5,-138 1129.5,-138 1129.5,-138 1135.5,-138 1141.5,-144 1141.5,-150 1141.5,-150 1141.5,-164 1141.5,-164 1141.5,-170 1135.5,-176 1129.5,-176"/>
<text text-anchor="middle" x="1071.5" y="-160.2" font-family="Arial" font-size="11.00" fill="#0f172a">Azure SQL Server</text>
<text text-anchor="middle" x="1071.5" y="-148.2" font-family="Arial" font-size="11.00" fill="#0f172a">sqlserver&#45;guestbook&#45;dev</text>
</g>
<!-- sql_database -->
<g id="node6" class="node">
<title>sql_database</title>
<path fill="#e0f2fe" stroke="#475569" d="M1355,-176C1355,-176 1254,-176 1254,-176 1248,-176 1242,-170 1242,-164 1242,-164 1242,-150 1242,-150 1242,-144 1248,-138 1254,-138 1254,-138 1355,-138 1355,-138 1361,-138 1367,-144 1367,-150 1367,-150 1367,-164 1367,-164 1367,-170 1361,-176 1355,-176"/>
<text text-anchor="middle" x="1304.5" y="-160.2" font-family="Arial" font-size="11.00" fill="#0f172a">Azure SQL Database</text>
<text text-anchor="middle" x="1304.5" y="-148.2" font-family="Arial" font-size="11.00" fill="#0f172a">sqldb&#45;guestbook&#45;dev</text>
</g>
<!-- sql_server&#45;&gt;sql_database -->
<g id="edge1" class="edge">
<title>sql_server&#45;&gt;sql_database</title>
<path fill="none" stroke="#64748b" d="M1141.72,-157C1141.72,-157 1234.94,-157 1234.94,-157"/>
<polygon fill="#64748b" stroke="#64748b" points="1234.94,-159.45 1241.94,-157 1234.94,-154.55 1234.94,-159.45"/>
<text text-anchor="middle" x="1202" y="-159.8" font-family="Arial" font-size="9.00" fill="#334155">hosts</text>
</g>
<!-- private_dns_zone -->
<g id="node7" class="node">
<title>private_dns_zone</title>
<path fill="#ecfdf5" stroke="#475569" d="M1150,-87C1150,-87 993,-87 993,-87 987,-87 981,-81 981,-75 981,-75 981,-61 981,-61 981,-55 987,-49 993,-49 993,-49 1150,-49 1150,-49 1156,-49 1162,-55 1162,-61 1162,-61 1162,-75 1162,-75 1162,-81 1156,-87 1150,-87"/>
<text text-anchor="middle" x="1071.5" y="-71.2" font-family="Arial" font-size="11.00" fill="#0f172a">Private DNS Zone</text>
<text text-anchor="middle" x="1071.5" y="-59.2" font-family="Arial" font-size="11.00" fill="#0f172a">privatelink.database.windows.net</text>
</g>
<!-- dns_link -->
<g id="node8" class="node">
<title>dns_link</title>
<path fill="#ecfdf5" stroke="#475569" d="M138,-113C138,-113 28,-113 28,-113 22,-113 16,-107 16,-101 16,-101 16,-87 16,-87 16,-81 22,-75 28,-75 28,-75 138,-75 138,-75 144,-75 150,-81 150,-87 150,-87 150,-101 150,-101 150,-107 144,-113 138,-113"/>
<text text-anchor="middle" x="83" y="-97.2" font-family="Arial" font-size="11.00" fill="#0f172a">Private DNS VNet Link</text>
<text text-anchor="middle" x="83" y="-85.2" font-family="Arial" font-size="11.00" fill="#0f172a">link&#45;guestbook&#45;dev&#45;sql</text>
</g>
<!-- dns_link&#45;&gt;private_dns_zone -->
<g id="edge6" class="edge">
<title>dns_link&#45;&gt;private_dns_zone</title>
<path fill="none" stroke="#64748b" d="M150.17,-78.5C150.17,-78.5 973.9,-78.5 973.9,-78.5"/>
<polygon fill="#64748b" stroke="#64748b" points="973.9,-80.95 980.9,-78.5 973.9,-76.05 973.9,-80.95"/>
<text text-anchor="middle" x="562.5" y="-58.8" font-family="Arial" font-size="9.00" fill="#334155">links</text>
</g>
<!-- subnet_aca -->
<g id="node9" class="node">
<title>subnet_aca</title>
<path fill="#ccfbf1" stroke="#475569" d="M458,-246C458,-246 268,-246 268,-246 262,-246 256,-240 256,-234 256,-234 256,-184 256,-184 256,-178 262,-172 268,-172 268,-172 458,-172 458,-172 464,-172 470,-178 470,-184 470,-184 470,-234 470,-234 470,-240 464,-246 458,-246"/>
<text text-anchor="middle" x="363" y="-230.2" font-family="Arial" font-size="11.00" fill="#0f172a">Subnet</text>
<text text-anchor="middle" x="363" y="-218.2" font-family="Arial" font-size="11.00" fill="#0f172a">snet&#45;container&#45;apps&#45;dev</text>
<text text-anchor="middle" x="363" y="-206.2" font-family="Arial" font-size="11.00" fill="#0f172a">10.0.1.0/26</text>
<text text-anchor="middle" x="363" y="-194.2" font-family="Arial" font-size="11.00" fill="#0f172a">Delegation: Microsoft.App/environments</text>
<text text-anchor="middle" x="363" y="-182.2" font-family="Arial" font-size="11.00" fill="#0f172a">Service endpoint: Microsoft.KeyVault</text>
</g>
<!-- dns_link&#45;&gt;subnet_aca -->
<g id="edge7" class="edge">
<title>dns_link&#45;&gt;subnet_aca</title>
<path fill="none" stroke="#64748b" stroke-dasharray="5,2" d="M150.07,-97.5C205.11,-97.5 274,-97.5 274,-97.5 274,-97.5 274,-164.87 274,-164.87"/>
<polygon fill="#64748b" stroke="#64748b" points="271.55,-164.87 274,-171.87 276.45,-164.87 271.55,-164.87"/>
<text text-anchor="middle" x="203" y="-150.8" font-family="Arial" font-size="9.00" fill="#334155">VNet scope</text>
</g>
<!-- subnet_aca&#45;&gt;key_vault -->
<g id="edge10" class="edge">
<title>subnet_aca&#45;&gt;key_vault</title>
<path fill="none" stroke="#b45309" stroke-dasharray="5,2" d="M458,-246.32C458,-296.91 458,-381 458,-381 458,-381 690.26,-381 690.26,-381"/>
<polygon fill="#b45309" stroke="#b45309" points="690.26,-383.45 697.26,-381 690.26,-378.55 690.26,-383.45"/>
<text text-anchor="middle" x="562.5" y="-312.8" font-family="Arial" font-size="9.00" fill="#334155">network ACL / service endpoint</text>
</g>
<!-- container_app_environment -->
<g id="node12" class="node">
<title>container_app_environment</title>
<path fill="#f3e8ff" stroke="#475569" d="M835,-322C835,-322 667,-322 667,-322 661,-322 655,-316 655,-310 655,-310 655,-296 655,-296 655,-290 661,-284 667,-284 667,-284 835,-284 835,-284 841,-284 847,-290 847,-296 847,-296 847,-310 847,-310 847,-316 841,-322 835,-322"/>
<text text-anchor="middle" x="751" y="-306.2" font-family="Arial" font-size="11.00" fill="#0f172a">Azure Container Apps Environment</text>
<text text-anchor="middle" x="751" y="-294.2" font-family="Arial" font-size="11.00" fill="#0f172a">cae&#45;guestbook&#45;dev</text>
</g>
<!-- subnet_aca&#45;&gt;container_app_environment -->
<g id="edge2" class="edge">
<title>subnet_aca&#45;&gt;container_app_environment</title>
<path fill="none" stroke="#64748b" d="M464,-246.15C464,-272.43 464,-303 464,-303 464,-303 647.63,-303 647.63,-303"/>
<polygon fill="#64748b" stroke="#64748b" points="647.63,-305.45 654.63,-303 647.63,-300.55 647.63,-305.45"/>
<text text-anchor="middle" x="562.5" y="-226.8" font-family="Arial" font-size="9.00" fill="#334155">infrastructure subnet</text>
</g>
<!-- subnet_pe -->
<g id="node10" class="node">
<title>subnet_pe</title>
<path fill="#ccfbf1" stroke="#475569" d="M423.5,-132C423.5,-132 302.5,-132 302.5,-132 296.5,-132 290.5,-126 290.5,-120 290.5,-120 290.5,-94 290.5,-94 290.5,-88 296.5,-82 302.5,-82 302.5,-82 423.5,-82 423.5,-82 429.5,-82 435.5,-88 435.5,-94 435.5,-94 435.5,-120 435.5,-120 435.5,-126 429.5,-132 423.5,-132"/>
<text text-anchor="middle" x="363" y="-116.2" font-family="Arial" font-size="11.00" fill="#0f172a">Subnet</text>
<text text-anchor="middle" x="363" y="-104.2" font-family="Arial" font-size="11.00" fill="#0f172a">snet&#45;private&#45;endpoint&#45;dev</text>
<text text-anchor="middle" x="363" y="-92.2" font-family="Arial" font-size="11.00" fill="#0f172a">10.0.2.0/27</text>
</g>
<!-- private_endpoint -->
<g id="node11" class="node">
<title>private_endpoint</title>
<path fill="#dcfce7" stroke="#475569" d="M802,-141C802,-141 700,-141 700,-141 694,-141 688,-135 688,-129 688,-129 688,-115 688,-115 688,-109 694,-103 700,-103 700,-103 802,-103 802,-103 808,-103 814,-109 814,-115 814,-115 814,-129 814,-129 814,-135 808,-141 802,-141"/>
<text text-anchor="middle" x="751" y="-125.2" font-family="Arial" font-size="11.00" fill="#0f172a">Private Endpoint</text>
<text text-anchor="middle" x="751" y="-113.2" font-family="Arial" font-size="11.00" fill="#0f172a">pe&#45;guestbook&#45;dev&#45;sql</text>
</g>
<!-- subnet_pe&#45;&gt;private_endpoint -->
<g id="edge3" class="edge">
<title>subnet_pe&#45;&gt;private_endpoint</title>
<path fill="none" stroke="#64748b" d="M435.52,-117.5C435.52,-117.5 680.82,-117.5 680.82,-117.5"/>
<polygon fill="#64748b" stroke="#64748b" points="680.82,-119.95 687.82,-117.5 680.82,-115.05 680.82,-119.95"/>
<text text-anchor="middle" x="562.5" y="-124.8" font-family="Arial" font-size="9.00" fill="#334155">hosts</text>
</g>
<!-- private_endpoint&#45;&gt;sql_server -->
<g id="edge4" class="edge">
<title>private_endpoint&#45;&gt;sql_server</title>
<path fill="none" stroke="#64748b" d="M751,-141.27C751,-149.17 751,-156.5 751,-156.5 751,-156.5 994.16,-156.5 994.16,-156.5"/>
<polygon fill="#64748b" stroke="#64748b" points="994.16,-158.95 1001.16,-156.5 994.16,-154.05 994.16,-158.95"/>
<text text-anchor="middle" x="914" y="-169.8" font-family="Arial" font-size="9.00" fill="#334155">private connection</text>
<text text-anchor="middle" x="914" y="-159.8" font-family="Arial" font-size="9.00" fill="#334155">sqlServer</text>
</g>
<!-- private_endpoint&#45;&gt;private_dns_zone -->
<g id="edge5" class="edge">
<title>private_endpoint&#45;&gt;private_dns_zone</title>
<path fill="none" stroke="#64748b" d="M814.06,-120.5C885.17,-120.5 991,-120.5 991,-120.5 991,-120.5 991,-94.25 991,-94.25"/>
<polygon fill="#64748b" stroke="#64748b" points="993.45,-94.25 991,-87.25 988.55,-94.25 993.45,-94.25"/>
<text text-anchor="middle" x="914" y="-104.8" font-family="Arial" font-size="9.00" fill="#334155">DNS zone group</text>
</g>
<!-- container_app_environment&#45;&gt;log_analytics -->
<g id="edge11" class="edge">
<title>container_app_environment&#45;&gt;log_analytics</title>
<path fill="none" stroke="#64748b" stroke-dasharray="5,2" d="M847.16,-303C847.16,-303 992.87,-303 992.87,-303"/>
<polygon fill="#64748b" stroke="#64748b" points="992.87,-305.45 999.87,-303 992.87,-300.55 992.87,-305.45"/>
<text text-anchor="middle" x="914" y="-305.8" font-family="Arial" font-size="9.00" fill="#334155">platform logs</text>
</g>
</g>
</svg>
